<?xml version="1.0" encoding="utf-8"?>
<!-- Generator: Adobe Illustrator 25.1.0, SVG Export Plug-In . SVG Version: 6.00 Build 0)  -->
<svg version="1.1" id="Layer_1" xmlns="http://www.w3.org/2000/svg" xmlns:xlink="http://www.w3.org/1999/xlink" x="0px" y="0px"
	 viewBox="0 0 799.8 801.18" style="enable-background:new 0 0 799.8 801.18;" xml:space="preserve">
<style type="text/css">
	.st0{fill:#FFFFFF;}
</style>
<g>
	<path class="st0" d="M799.8,375.56c0,16.69,0,33.38,0,50.07c-0.54,0.78-1.47,1.51-1.57,2.34c-0.58,5.04-0.87,10.11-1.43,15.14
		c-3.5,31.52-9.15,62.52-20.82,92.23c-6.85,17.43-12.76,35.23-22.6,51.35c-7.51,12.3-14.33,25.05-22.23,37.09
		c-6.9,10.51-14.73,20.43-22.41,30.42c-12.64,16.43-27.24,31-42.65,44.84c-14.26,12.79-28.98,24.97-45.29,35.01
		c-14.38,8.85-28.96,17.44-43.84,25.4c-20.96,11.21-43.22,19.29-66.03,25.93c-25.84,7.52-52.14,12.36-78.96,14.47
		c-3.04,0.24-6.04,0.88-9.06,1.33c-15.9,0-31.8,0-47.7,0c-2.62-0.46-5.22-1.14-7.86-1.34c-40.99-3.06-80.44-12.75-118.5-28.06
		c-22.75-9.15-44.57-20.37-64.99-33.89c-15.26-10.1-29.99-21.15-44.04-32.88c-11.64-9.72-22.47-20.57-32.71-31.78
		c-11.46-12.55-22.32-25.73-32.55-39.31c-7.89-10.47-15.05-21.61-21.36-33.1c-8.26-15.04-16.52-30.26-22.67-46.22
		c-7.98-20.72-14.7-42.02-20.48-63.47c-6.8-25.22-9.9-51.27-9.98-77.32C-0.36,277.43-0.15,141.04-0.15,4.66c0-1.39,0-2.79,0-4.64
		c2.26,0,4.04,0,5.83,0c129.41,0,258.81-0.08,388.22,0.1c15.85,0.02,31.75,0.74,47.53,2.23c49.58,4.68,96.48,18.99,140.69,41.74
		c15.12,7.78,29.89,16.53,43.81,26.28c15.29,10.72,29.66,22.82,43.96,34.88c7.73,6.52,14.68,14.01,21.58,21.44
		c7.42,8,14.75,16.14,21.43,24.75c8.13,10.48,16,21.22,23.12,32.39c7.48,11.72,14.79,23.69,20.65,36.26
		c8.45,18.14,16.44,36.6,22.97,55.5c10.85,31.42,16.16,64.1,18.59,97.24C798.28,373.78,799.25,374.66,799.8,375.56z M354.64,255.07
		c0.3-4.38,0.74-7.87,0.76-11.37c0.16-38.72,0.23-77.43,0.41-116.15c0.01-2.79-0.62-3.89-3.67-3.88
		c-33.09,0.1-66.19,0.07-99.28,0.03c-2.26,0-3.65,0.25-3.64,3.1c0.02,2.77,1.31,3.1,3.6,3.24c5.45,0.33,10.95,0.55,16.29,1.53
		c9.07,1.67,12.03,5.43,12.39,14.72c0.3,7.81,0.65,15.62,0.66,23.43c0.01,70.14-0.01,140.27-0.16,210.41
		c-0.02,7.53-0.78,15.07-1.43,22.58c-0.37,4.27-2.98,6.86-7.22,7.57c-4.22,0.7-8.46,1.38-12.71,1.79c-2.25,0.22-3.57,0.57-3.57,3.33
		c0.01,2.78,1.25,3.17,3.58,3.17c37.39-0.05,74.79-0.04,112.18-0.02c1.94,0,3.61,0.05,3.69-2.7c0.07-2.59-0.69-3.88-3.48-3.82
		c-2.2,0.04-4.46-0.09-6.61-0.55c-7.72-1.63-8.88-2.94-9.26-8.97c-0.73-11.56-1.29-23.15-1.35-34.73
		c-0.18-31.81,0.06-63.62-0.17-95.43c-0.04-6.21,0.98-11.91,4.01-17.21c2.12-3.71,4.3-7.44,6.96-10.76
		c9.47-11.83,30.44-9.23,35.83,4.41c2.44,6.17,3.87,12.6,3.87,19.31c0.04,33.76,0.2,67.53,0.17,101.29
		c-0.01,9.64,0.22,19.36-0.98,28.88c-1.17,9.21-2.77,13.05-12.68,13.45c-1.3,0.05-2.6,0.41-3.88,0.35
		c-2.87-0.12-2.99,1.61-3.01,3.79c-0.03,2.46,1.35,2.68,3.26,2.68c37.52-0.02,75.05-0.03,112.57,0.02c2.31,0,3.26-0.68,3.24-3.12
		c-0.01-2.3-0.71-3.29-3.1-3.34c-2.98-0.06-5.97-0.36-8.94-0.72c-7.68-0.93-10.83-3.58-11.52-11.23
		c-0.85-9.32-1.22-18.72-1.27-28.08c-0.15-31.42-0.04-62.84-0.08-94.25c0-2.86-0.17-5.74-0.55-8.57
		c-2.17-16.3-12.56-26.87-25.62-34.97c-17.71-10.99-37.24-13.3-57.58-10.15c-14.02,2.17-25.56,8.48-33.86,20.26
		C360.14,247.75,357.65,250.99,354.64,255.07z M294.24,436.31c-0.88,6-0.88,6,4.71,6.37c1.04,0.07,2.08,0.19,3.12,0.15
		c9.52-0.38,15.71,4.32,19.42,12.76c6.44,14.63,13.01,29.21,19.24,43.93c7.44,17.61,14.62,35.33,21.85,53.03
		c7.38,18.06,14.73,36.13,22.01,54.23c4.18,10.4,8.27,20.83,12.17,31.34c0.64,1.74,0.6,4.13-0.05,5.88
		c-5.7,15.28-12.98,29.82-21.95,43.44c-3.49,5.31-7.25,10.55-11.6,15.15c-4.07,4.29-9.13,7.58-16.59,6.54
		c2.49-3.36,4.7-6.18,6.75-9.11c6.68-9.57,10.89-19.52,6.88-31.63c-4.06-12.25-10.93-21.2-24.14-24.04
		c-20.85-4.48-35.58,4.25-43.32,21.32c-7.52,16.6-4.18,33.17,11.69,46.06c19.23,15.62,49.3,10.64,64.66-6.93
		c6.04-6.91,11.5-14.55,15.97-22.56c7.66-13.72,14.75-27.81,21.31-42.09c7.75-16.9,14.91-34.08,21.91-51.31
		c7.63-18.8,14.79-37.79,22.12-56.71c9.35-24.14,18.66-48.3,28.01-72.44c0.66-1.7,1.51-3.32,2.32-4.95
		c3.16-6.42,8.07-10.37,15.37-11.15c3.96-0.42,7.89-1.11,11.84-1.68c0-2.05,0-3.69,0-5.43c-0.83-0.16-1.45-0.38-2.08-0.38
		c-19.68-0.02-39.35,0-59.03-0.06c-2.22-0.01-2.96,0.84-2.92,3c0.04,2.07,0.26,3.46,2.86,3.57c4.28,0.18,8.6,0.42,12.82,1.12
		c6.07,1.01,7.72,3.12,7.87,9.21c0.04,1.69,0.03,3.43-0.35,5.06c-1.31,5.71-2.33,11.54-4.28,17.04
		c-6.21,17.52-12.78,34.91-19.24,52.35c-2.11,5.7-4.31,11.37-6.68,17.62c-0.76-1.11-1.19-1.57-1.42-2.11
		c-3.43-8.13-6.98-16.21-10.21-24.42c-6.21-15.76-12.28-31.57-18.33-47.4c-2.49-6.51-5.83-12.76-5.45-20.1
		c0.28-5.48,1.48-7.19,6.95-8.01c3.68-0.55,7.42-0.78,11.18-1.16c0-1.92,0-3.56,0-5.47C377.75,436.31,336.12,436.31,294.24,436.31z
		 M676.86,565.33c-5.28,8.86-10.05,17.46-15.39,25.7c-8.63,13.32-21.24,20.48-36.93,21.95c-13.46,1.26-26.38-0.21-36.95-9.88
		c-6.47-5.92-11.87-12.59-15.3-20.88c-7.52-18.17-9.2-37.31-10.11-56.63c-0.17-3.59,2.11-3.17,4.34-3.17
		c36.62,0.01,73.24-0.03,109.85,0.07c3.36,0.01,4.68-0.81,4.42-4.37c-1.31-18.2-4.9-35.68-16.61-50.34
		c-5.33-6.67-10.7-13.71-17.39-18.83c-13.76-10.53-29.98-15.06-47.26-16.42c-34.13-2.69-63.31,7.83-87.58,31.94
		c-9.71,9.65-16.6,21.46-20.66,34.13c-7.99,24.95-7.78,50.14,2.52,74.8c5.62,13.46,13.1,25.46,24.96,34.27
		c5.32,3.95,10.58,8.17,16.41,11.23c18.03,9.47,37.47,13.01,57.75,12.64c20.12-0.37,38.67-5.89,54.81-17.86
		c14.57-10.82,25.47-24.81,31.87-42.04C681.45,566.73,681.53,566.75,676.86,565.33z M308.45,565.22
		c-5.38,8.97-10.19,17.52-15.52,25.74c-8.81,13.58-21.6,20.77-37.65,22.13c-11.68,0.99-23.03-0.21-32.84-7.26
		c-8.4-6.03-14.45-14.24-18.58-23.64c-7.51-17.12-9.43-35.4-10.09-53.85c-0.21-5.92-0.11-5.93,5.81-5.93c35.97,0,71.94,0,107.9,0
		c2.35,0,4.74,0.5,4.54-3.36c-0.99-19.63-5.69-37.73-17.9-53.87c-12.37-16.34-28.16-26.34-47.93-30.45
		c-23.71-4.93-46.85-3.29-69.28,6.3c-14.42,6.16-26.38,15.78-36.76,27.19c-11.95,13.15-18.28,29.38-21.33,46.61
		c-2.77,15.6-1.74,31.12,2.54,46.68c5.46,19.86,15.44,36.26,31.86,48.68c19.21,14.53,41.17,20.62,64.94,21.33
		c20.46,0.61,39.72-3.65,56.89-14.92c13.34-8.75,24.13-20.18,31.29-34.66c2.34-4.73,4.29-9.64,6.5-14.66
		C310.71,566.28,309.21,565.57,308.45,565.22z M691.48,313.04c-0.99-6.05-1.86-11.35-2.74-16.65c-3.07-18.69-9.85-35.66-23.9-48.88
		c-5.37-5.05-11.04-10.23-17.48-13.6c-22.21-11.62-46.02-13.29-70.34-8.87c-14.26,2.59-27.29,8.26-39.18,16.76
		c-15.14,10.81-27.31,23.94-34.42,41.35c-7.87,19.27-8.78,39.3-5.79,59.57c2.49,16.88,8.29,32.33,20.06,45.36
		c7.71,8.54,16.29,15.69,26.36,21.09c22.49,12.06,46.54,15.27,71.58,12.13c21.08-2.64,38.8-12.34,53.72-27.12
		c8.13-8.05,13.7-18,18.29-28.46c1.11-2.52,2.4-4.96,3.69-7.62c-2.42-0.97-4.28-1.71-6.24-2.49c-4.9,12.24-10.34,23.5-19.47,33
		c-10.03,10.44-21.94,14.76-35.89,15.39c-13.81,0.62-26.04-2.84-35.89-12.96c-7.44-7.64-11.69-17.24-15.28-26.96
		c-5.48-14.83-6.12-30.55-7.04-46.18c-0.24-4.13,1.24-4.94,5.08-4.93c36.36,0.14,72.71,0.08,109.07,0.08
		C687.23,313.04,688.77,313.04,691.48,313.04z M214.1,226.86c0-2.18,0-3.72,0-5.26c0-23.72-0.04-47.45,0.05-71.17
		c0.01-2.87-0.58-3.98-3.83-4.19c-5.18-0.34-8.85,0.79-10.2,6.27c-0.12,0.49-0.47,0.92-0.72,1.38
		c-10.35,19.09-24.38,35.16-40.43,49.62c-12.86,11.58-26.55,21.76-43.24,27.29c-0.99,0.33-1.96,1.86-2.23,3
		c-0.38,1.6,0,3.37-0.13,5.06c-0.18,2.42,0.89,3.17,3.22,3.13c5.99-0.11,11.98-0.04,17.98-0.03c5.13,0.01,5.14,0.01,5.14,5.11
		c0,40.67-0.12,81.34,0.15,122c0.03,5.27,1.53,10.71,3.25,15.76c6.94,20.33,23.56,29.21,42.59,34.75
		c14.95,4.35,30.2,3.44,45.33,1.08c10.22-1.6,20.45-4.26,27.87-11.98c10.42-10.84,14.22-24.79,16.15-39.3
		c0.22-1.67,0.62-3.7-2.37-3.86c-3.15-0.17-3.21,1.64-3.32,3.91c-0.44,9.09-2.14,18.01-6.92,25.79c-2.49,4.05-6.01,8.55-10.14,10.29
		c-15.24,6.42-31.37,1.14-35.69-17.41c-1.69-7.27-2.13-14.96-2.18-22.47c-0.27-39.75-0.25-79.51-0.31-119.26
		c0-1.37,0.17-2.73,0.27-4.4c1.87,0,3.28,0,4.69,0c12.12,0,24.23,0.04,36.35-0.06c1.36-0.01,3.53-0.53,3.91-1.42
		c1.82-4.24,3.15-8.69,4.85-13.61C247.23,226.86,230.99,226.86,214.1,226.86z"/>
	<path class="st0" d="M613.05,514.67c-1.87,0-3.79,0-5.71,0c-13.27,0-26.55,0-39.82,0c-5.4,0-5.29,0-4.97-5.28
		c0.69-11.55,0.83-23.15,2.02-34.64c0.79-7.71,2.37-15.47,4.69-22.87c4.29-13.71,19.38-17.92,31.16-9.49
		c7.84,5.61,9.72,14.07,10.71,22.51c1.3,11.08,1.42,22.3,1.88,33.47C613.23,503.55,613.05,508.74,613.05,514.67z"/>
	<path class="st0" d="M244.47,514.46c-1.41,0.07-2.8,0.21-4.19,0.21c-14.06,0.02-28.12-0.09-42.18,0.08
		c-3.34,0.04-4.54-0.72-4.4-4.31c0.68-17.03,0.76-34.11,4.7-50.83c0.83-3.54,1.95-7.03,3.2-10.44c2.35-6.38,7.39-9.55,13.79-10.69
		c10.16-1.8,19.72,3.48,23.62,13.03c4.47,10.94,5.17,22.52,5.41,34.12C244.63,495.1,244.47,504.59,244.47,514.46z"/>
	<path class="st0" d="M597.21,305.38c-7.43,0-14.85-0.02-22.28,0.01c-1.85,0.01-3.42-0.09-3.32-2.6c0.79-19.77,0.2-39.77,6.54-58.81
		c3.79-11.38,10.67-16.01,22.12-14.71c6.95,0.79,11.93,4.24,15.24,10.2c4.01,7.23,5.44,15.23,5.92,23.31
		c0.64,10.92,0.71,21.87,1.02,32.8c0.03,1.17,0,2.35,0.12,3.51c0.65,6.28,0.66,6.28-5.43,6.29
		C610.5,305.38,603.86,305.38,597.21,305.38z"/>
</g>
</svg>
